<svg width="252" height="59" viewBox="0 0 252 59" fill="none" xmlns="http://www.w3.org/2000/svg">
<path d="M251 29.5C251 31.2279 250.256 32.9917 248.687 34.7872C247.112 36.5892 244.744 38.375 241.614 40.1078C235.354 43.5731 226.229 46.726 214.867 49.386C192.16 54.7023 160.741 58 126 58C91.2594 58 59.8395 54.7023 37.1325 49.386C25.771 46.726 16.6462 43.5731 10.386 40.1078C7.2556 38.375 4.88776 36.5892 3.31282 34.7872C1.74356 32.9917 1 31.2279 1 29.5C1 27.7721 1.74356 26.0083 3.31282 24.2128C4.88776 22.4108 7.2556 20.625 10.386 18.8922C16.6462 15.4269 25.771 12.274 37.1325 9.61402C59.8395 4.2977 91.2594 1 126 1C160.741 1 192.16 4.2977 214.867 9.61402C226.229 12.274 235.354 15.4269 241.614 18.8922C244.744 20.625 247.112 22.4108 248.687 24.2128C250.256 26.0083 251 27.7721 251 29.5Z" fill="#7ED4EF" stroke="black" stroke-width="2"/>
</svg>
