<svg width="1113" height="106" viewBox="0 0 1113 106" fill="none" xmlns="http://www.w3.org/2000/svg">
<path d="M74.768 1H1038.23C1039.95 1 1040.58 1.01133 1041.15 1.19243C1041.57 1.32979 1041.97 1.53789 1042.33 1.80804C1042.8 2.16421 1043.18 2.67893 1044.16 4.08182L1107.05 93.5818C1108.62 95.8109 1109.75 97.4218 1110.47 98.7046C1111.2 99.9981 1111.42 100.784 1111.36 101.388C1111.26 102.414 1110.76 103.363 1109.98 104.035C1109.52 104.429 1108.76 104.708 1107.28 104.854C1105.81 104.999 1103.84 105 1101.12 105H11.88C9.15569 105 7.18768 104.999 5.72158 104.854C4.24323 104.708 3.47805 104.429 3.01817 104.035C2.23567 103.363 1.743 102.414 1.64304 101.388C1.58429 100.784 1.79638 99.9981 2.52681 98.7046C3.2512 97.4218 4.38168 95.8109 5.94794 93.5818L68.836 4.08181C69.8217 2.67893 70.1973 2.16421 70.6689 1.80804C71.0266 1.53789 71.4271 1.32979 71.8538 1.19243C72.4164 1.01133 73.0534 1 74.768 1Z" fill="#F4F773" stroke="black" stroke-width="2"/>
</svg>
