<svg width="1181" height="107" viewBox="0 0 1181 107" fill="none" xmlns="http://www.w3.org/2000/svg">
<path d="M79.1638 1H1101.84C1103.5 1 1104.12 1.01077 1104.67 1.18319C1105.09 1.31399 1105.48 1.51231 1105.84 1.77025C1106.3 2.11027 1106.68 2.60226 1107.67 3.94373L1174.49 94.4437C1176.15 96.6905 1177.34 98.3158 1178.12 99.6115C1178.9 100.92 1179.13 101.715 1179.08 102.325C1179 103.364 1178.51 104.329 1177.72 105.015C1177.26 105.416 1176.48 105.701 1174.97 105.851C1173.47 105.999 1171.45 106 1168.65 106H12.3461C9.5533 106 7.5339 105.999 6.03258 105.851C4.51661 105.701 3.7382 105.416 3.2776 105.015C2.49168 104.329 2.00451 103.364 1.9199 102.325C1.87032 101.715 2.10328 100.92 2.88351 99.6115C3.6562 98.3158 4.85472 96.6905 6.51354 94.4437L73.3313 3.94373C74.3217 2.60226 74.6984 2.11027 75.1637 1.77025C75.5168 1.51231 75.9097 1.31399 76.3269 1.18319C76.8768 1.01077 77.4964 1 79.1638 1Z" fill="#D9D9D9" stroke="black" stroke-width="2"/>
</svg>
