<svg width="103" height="86" viewBox="0 0 103 86" fill="none" xmlns="http://www.w3.org/2000/svg">
<g filter="url(#filter0_d_105_16)">
<path d="M48.4191 3.08313C49.4174 0.549589 53.003 0.549591 54.0013 3.08313L63.2588 26.576C63.7105 27.7226 64.8175 28.4762 66.0499 28.4762H94.5752C97.619 28.4762 98.728 32.4855 96.117 34.0497L74.0985 47.2405C72.8397 47.9946 72.3112 49.5487 72.8491 50.9139L81.4803 72.8175C82.5304 75.4826 79.6047 77.963 77.1474 76.4908L52.752 61.876C51.8028 61.3074 50.6177 61.3074 49.6685 61.876L25.273 76.4908C22.8157 77.963 19.89 75.4826 20.9402 72.8175L29.5713 50.9139C30.1093 49.5487 29.5807 47.9946 28.3219 47.2405L6.30348 34.0497C3.69244 32.4855 4.80149 28.4762 7.84523 28.4762H36.3706C37.6029 28.4762 38.7099 27.7226 39.1617 26.576L48.4191 3.08313Z" fill="#E9F554"/>
<path d="M48.4191 3.08313C49.4174 0.549589 53.003 0.549591 54.0013 3.08313L63.2588 26.576C63.7105 27.7226 64.8175 28.4762 66.0499 28.4762H94.5752C97.619 28.4762 98.728 32.4855 96.117 34.0497L74.0985 47.2405C72.8397 47.9946 72.3112 49.5487 72.8491 50.9139L81.4803 72.8175C82.5304 75.4826 79.6047 77.963 77.1474 76.4908L52.752 61.876C51.8028 61.3074 50.6177 61.3074 49.6685 61.876L25.273 76.4908C22.8157 77.963 19.89 75.4826 20.9402 72.8175L29.5713 50.9139C30.1093 49.5487 29.5807 47.9946 28.3219 47.2405L6.30348 34.0497C3.69244 32.4855 4.80149 28.4762 7.84523 28.4762H36.3706C37.6029 28.4762 38.7099 27.7226 39.1617 26.576L48.4191 3.08313Z" stroke="black"/>
</g>
<defs>
<filter id="filter0_d_105_16" x="0.33918" y="0.683105" width="101.742" height="84.7495" filterUnits="userSpaceOnUse" color-interpolation-filters="sRGB">
<feFlood flood-opacity="0" result="BackgroundImageFix"/>
<feColorMatrix in="SourceAlpha" type="matrix" values="0 0 0 0 0 0 0 0 0 0 0 0 0 0 0 0 0 0 127 0" result="hardAlpha"/>
<feOffset dy="4"/>
<feGaussianBlur stdDeviation="2"/>
<feComposite in2="hardAlpha" operator="out"/>
<feColorMatrix type="matrix" values="0 0 0 0 0 0 0 0 0 0 0 0 0 0 0 0 0 0 0.25 0"/>
<feBlend mode="normal" in2="BackgroundImageFix" result="effect1_dropShadow_105_16"/>
<feBlend mode="normal" in="SourceGraphic" in2="effect1_dropShadow_105_16" result="shape"/>
</filter>
</defs>
</svg>
